<svg width="20" height="20" viewBox="0 0 20 20" fill="none" xmlns="http://www.w3.org/2000/svg">
<mask id="mask0_454_16149" style="mask-type:alpha" maskUnits="userSpaceOnUse" x="0" y="0" width="20" height="20">
<rect width="20" height="20" fill="#919BA7"/>
</mask>
<g mask="url(#mask0_454_16149)">
<path d="M2.5 17.5C2.26389 17.5 2.06597 17.4201 1.90625 17.2604C1.74653 17.1007 1.66667 16.9028 1.66667 16.6667C1.66667 16.4306 1.74653 16.2326 1.90625 16.0729C2.06597 15.9132 2.26389 15.8333 2.5 15.8333H17.5C17.7361 15.8333 17.934 15.9132 18.0938 16.0729C18.2535 16.2326 18.3333 16.4306 18.3333 16.6667C18.3333 16.9028 18.2535 17.1007 18.0938 17.2604C17.934 17.4201 17.7361 17.5 17.5 17.5H2.5ZM3.75 15C3.40278 15 3.10764 14.8785 2.86458 14.6354C2.62153 14.3924 2.5 14.0972 2.5 13.75V10.4167C2.5 10.0694 2.62153 9.77431 2.86458 9.53125C3.10764 9.28819 3.40278 9.16667 3.75 9.16667C4.09722 9.16667 4.39236 9.28819 4.63542 9.53125C4.87847 9.77431 5 10.0694 5 10.4167V13.75C5 14.0972 4.87847 14.3924 4.63542 14.6354C4.39236 14.8785 4.09722 15 3.75 15ZM7.91667 15C7.56945 15 7.27431 14.8785 7.03125 14.6354C6.7882 14.3924 6.66667 14.0972 6.66667 13.75V6.25C6.66667 5.90278 6.7882 5.60764 7.03125 5.36458C7.27431 5.12153 7.56945 5 7.91667 5C8.26389 5 8.55903 5.12153 8.80208 5.36458C9.04514 5.60764 9.16667 5.90278 9.16667 6.25V13.75C9.16667 14.0972 9.04514 14.3924 8.80208 14.6354C8.55903 14.8785 8.26389 15 7.91667 15ZM12.0833 15C11.7361 15 11.441 14.8785 11.1979 14.6354C10.9549 14.3924 10.8333 14.0972 10.8333 13.75V8.75C10.8333 8.40278 10.9549 8.10764 11.1979 7.86458C11.441 7.62153 11.7361 7.5 12.0833 7.5C12.4306 7.5 12.7257 7.62153 12.9688 7.86458C13.2118 8.10764 13.3333 8.40278 13.3333 8.75V13.75C13.3333 14.0972 13.2118 14.3924 12.9688 14.6354C12.7257 14.8785 12.4306 15 12.0833 15ZM16.25 15C15.9028 15 15.6076 14.8785 15.3646 14.6354C15.1215 14.3924 15 14.0972 15 13.75V3.75C15 3.40278 15.1215 3.10764 15.3646 2.86458C15.6076 2.62153 15.9028 2.5 16.25 2.5C16.5972 2.5 16.8924 2.62153 17.1354 2.86458C17.3785 3.10764 17.5 3.40278 17.5 3.75V13.75C17.5 14.0972 17.3785 14.3924 17.1354 14.6354C16.8924 14.8785 16.5972 15 16.25 15Z" fill="#70757C"/>
</g>
</svg>
