<svg width="20" height="20" viewBox="0 0 20 20" fill="none" xmlns="http://www.w3.org/2000/svg">
<mask id="mask0_454_16143" style="mask-type:alpha" maskUnits="userSpaceOnUse" x="0" y="0" width="20" height="20">
<rect width="20" height="20" fill="#D9D9D9"/>
</mask>
<g mask="url(#mask0_454_16143)">
<path d="M3.33328 15.8327V9.68685L2.49995 10.3327C2.3055 10.4716 2.09717 10.5271 1.87495 10.4993C1.65272 10.4716 1.47217 10.3605 1.33328 10.166C1.19439 9.97157 1.13883 9.76324 1.16661 9.54102C1.19439 9.31879 1.29856 9.13824 1.47911 8.99935L3.33328 7.58268V5.83268C3.33328 5.59657 3.41314 5.39865 3.57286 5.23893C3.73258 5.07921 3.9305 4.99935 4.16661 4.99935C4.40272 4.99935 4.60064 5.07921 4.76036 5.23893C4.92008 5.39865 4.99995 5.59657 4.99995 5.83268V6.31185L8.97911 3.27018C9.28467 3.03407 9.62495 2.91602 9.99995 2.91602C10.3749 2.91602 10.7152 3.03407 11.0208 3.27018L18.5208 8.99935C18.7013 9.13824 18.8055 9.31879 18.8333 9.54102C18.8611 9.76324 18.8055 9.97157 18.6666 10.166C18.5277 10.3466 18.3472 10.4507 18.1249 10.4785C17.9027 10.5063 17.7013 10.4507 17.5208 10.3118L16.6666 9.68685V15.8327C16.6666 16.291 16.5034 16.6834 16.177 17.0098C15.8506 17.3362 15.4583 17.4993 14.9999 17.4993H4.99995C4.54161 17.4993 4.14925 17.3362 3.82286 17.0098C3.49647 16.6834 3.33328 16.291 3.33328 15.8327ZM4.99995 15.8327H9.16661V13.3327C9.16661 13.0966 9.24647 12.8987 9.4062 12.7389C9.56592 12.5792 9.76383 12.4993 9.99995 12.4993C10.2361 12.4993 10.434 12.5792 10.5937 12.7389C10.7534 12.8987 10.8333 13.0966 10.8333 13.3327V15.8327H14.9999V8.41602L9.99995 4.60352L4.99995 8.41602V15.8327Z" fill="#70757C"/>
</g>
</svg>
