<svg width="20" height="20" viewBox="0 0 20 20" fill="none" xmlns="http://www.w3.org/2000/svg">
<mask id="mask0_454_16137" style="mask-type:alpha" maskUnits="userSpaceOnUse" x="0" y="0" width="20" height="20">
<rect width="20" height="20" fill="#001A3A"/>
</mask>
<g mask="url(#mask0_454_16137)">
<path d="M4.16667 3.33268V8.35352V8.33268V16.666V3.33268ZM6.66667 11.666H8.33333C8.56944 11.666 8.76736 11.5862 8.92708 11.4264C9.08681 11.2667 9.16667 11.0688 9.16667 10.8327C9.16667 10.5966 9.08681 10.3987 8.92708 10.2389C8.76736 10.0792 8.56944 9.99935 8.33333 9.99935H6.66667C6.43056 9.99935 6.23264 10.0792 6.07292 10.2389C5.91319 10.3987 5.83333 10.5966 5.83333 10.8327C5.83333 11.0688 5.91319 11.2667 6.07292 11.4264C6.23264 11.5862 6.43056 11.666 6.66667 11.666ZM6.66667 14.9993H7.5C7.73611 14.9993 7.93403 14.9195 8.09375 14.7598C8.25347 14.6 8.33333 14.4021 8.33333 14.166C8.33333 13.9299 8.25347 13.732 8.09375 13.5723C7.93403 13.4125 7.73611 13.3327 7.5 13.3327H6.66667C6.43056 13.3327 6.23264 13.4125 6.07292 13.5723C5.91319 13.732 5.83333 13.9299 5.83333 14.166C5.83333 14.4021 5.91319 14.6 6.07292 14.7598C6.23264 14.9195 6.43056 14.9993 6.66667 14.9993ZM4.16667 18.3327C3.70833 18.3327 3.31597 18.1695 2.98958 17.8431C2.66319 17.5167 2.5 17.1243 2.5 16.666V3.33268C2.5 2.87435 2.66319 2.48199 2.98958 2.1556C3.31597 1.82921 3.70833 1.66602 4.16667 1.66602H10.1458C10.3681 1.66602 10.5799 1.70768 10.7812 1.79102C10.9826 1.87435 11.1597 1.9924 11.3125 2.14518L15.3542 6.18685C15.5069 6.33963 15.625 6.51671 15.7083 6.7181C15.7917 6.91949 15.8333 7.13129 15.8333 7.35352V7.93685C15.8333 8.17296 15.7535 8.3674 15.5938 8.52018C15.434 8.67296 15.2361 8.74935 15 8.74935C14.7639 8.74935 14.566 8.66949 14.4062 8.50977C14.2465 8.35004 14.1667 8.15213 14.1667 7.91602V7.49935H10.8333C10.5972 7.49935 10.3993 7.41949 10.2396 7.25977C10.0799 7.10004 10 6.90213 10 6.66602V3.33268H4.16667V16.666H8.75C8.98611 16.666 9.18403 16.7459 9.34375 16.9056C9.50347 17.0653 9.58333 17.2632 9.58333 17.4993C9.58333 17.7355 9.50347 17.9334 9.34375 18.0931C9.18403 18.2528 8.98611 18.3327 8.75 18.3327H4.16667ZM13.75 15.8327C14.3333 15.8327 14.8264 15.6313 15.2292 15.2285C15.6319 14.8257 15.8333 14.3327 15.8333 13.7493C15.8333 13.166 15.6319 12.673 15.2292 12.2702C14.8264 11.8674 14.3333 11.666 13.75 11.666C13.1667 11.666 12.6736 11.8674 12.2708 12.2702C11.8681 12.673 11.6667 13.166 11.6667 13.7493C11.6667 14.3327 11.8681 14.8257 12.2708 15.2285C12.6736 15.6313 13.1667 15.8327 13.75 15.8327ZM18.5833 18.5827C18.4306 18.7355 18.2361 18.8118 18 18.8118C17.7639 18.8118 17.5694 18.7355 17.4167 18.5827L15.75 16.916C15.4583 17.1105 15.1424 17.2563 14.8021 17.3535C14.4618 17.4507 14.1111 17.4993 13.75 17.4993C12.7083 17.4993 11.8229 17.1348 11.0938 16.4056C10.3646 15.6764 10 14.791 10 13.7493C10 12.7077 10.3646 11.8223 11.0938 11.0931C11.8229 10.3639 12.7083 9.99935 13.75 9.99935C14.7917 9.99935 15.6771 10.3639 16.4062 11.0931C17.1354 11.8223 17.5 12.7077 17.5 13.7493C17.5 14.1105 17.4514 14.4612 17.3542 14.8014C17.2569 15.1417 17.1111 15.4577 16.9167 15.7493L18.5833 17.416C18.7361 17.5688 18.8125 17.7632 18.8125 17.9993C18.8125 18.2355 18.7361 18.4299 18.5833 18.5827Z" fill="black"/>
</g>
</svg>
