<svg width="20" height="20" viewBox="0 0 20 20" fill="none" xmlns="http://www.w3.org/2000/svg">
<circle cx="10" cy="10" r="10" fill="#5E5E5E"/>
<mask id="mask0_454_16095" style="mask-type:alpha" maskUnits="userSpaceOnUse" x="4" y="4" width="12" height="12">
<rect x="4.28674" y="4.28516" width="11.4286" height="11.4286" fill="#EAEDF0"/>
</mask>
<g mask="url(#mask0_454_16095)">
<path d="M9.04849 12.8573C8.78659 12.8573 8.56238 12.7641 8.37587 12.5776C8.18937 12.3911 8.09611 12.1669 8.09611 11.9049V11.3097C7.64373 11.0002 7.29254 10.6034 7.04254 10.1192C6.79254 9.63511 6.66754 9.11923 6.66754 8.57161C6.66754 7.64304 6.99095 6.85534 7.63778 6.20852C8.28461 5.56169 9.0723 5.23828 10.0009 5.23828C10.9294 5.23828 11.7171 5.56169 12.364 6.20852C13.0108 6.85534 13.3342 7.64304 13.3342 8.57161C13.3342 9.11923 13.2092 9.63312 12.9592 10.1133C12.7092 10.5934 12.358 10.9922 11.9056 11.3097V11.9049C11.9056 12.1669 11.8124 12.3911 11.6259 12.5776C11.4394 12.7641 11.2152 12.8573 10.9533 12.8573H9.04849ZM9.04849 14.7621C8.91357 14.7621 8.80048 14.7165 8.70921 14.6252C8.61794 14.5339 8.5723 14.4208 8.5723 14.2859V13.8097H11.4294V14.2859C11.4294 14.4208 11.3838 14.5339 11.2925 14.6252C11.2013 14.7165 11.0882 14.7621 10.9533 14.7621H9.04849Z" fill="#EAEDF0"/>
</g>
</svg>
