<svg width="30" height="16" viewBox="0 0 30 16" fill="none" xmlns="http://www.w3.org/2000/svg">
<g opacity="0.5" clip-path="url(#clip0_454_16005)">
<mask id="mask0_454_16005" style="mask-type:luminance" maskUnits="userSpaceOnUse" x="0" y="0" width="30" height="16">
<path d="M30 0H0V16H30V0Z" fill="white"/>
</mask>
<g mask="url(#mask0_454_16005)">
<path d="M7.37815 13.2324H6.3365C5.68305 13.2324 5.33766 13.5211 5.33766 14.0675V15.843H6.12549V14.2123C6.12549 14.1296 6.12549 13.9359 6.53165 13.9359H7.18997C7.54409 13.9359 7.58933 14.0834 7.58933 14.2123V15.8429H8.36996V14.0676C8.36996 13.5213 8.0271 13.2325 7.37815 13.2325" fill="#001A3A"/>
<path d="M18.7589 13.2327C18.6089 13.138 18.3871 13.0918 18.0807 13.0918H17.0555C16.7539 13.0918 16.5209 13.1387 16.3627 13.2315C16.2562 13.2885 16.1681 13.3716 16.1078 13.4719C16.0475 13.5722 16.0171 13.686 16.0201 13.8012V15.0092C16.017 15.1095 16.0404 15.209 16.0882 15.2988C16.136 15.3885 16.2068 15.4657 16.2941 15.5235C16.4662 15.642 16.7225 15.7024 17.0555 15.7024H18.0805C18.3777 15.7024 18.5967 15.6567 18.7488 15.5635C18.8537 15.509 18.9406 15.4285 19 15.3307C19.0595 15.2329 19.0891 15.1216 19.0858 15.009V13.8011C19.0858 13.5502 18.9758 13.359 18.7587 13.2327M18.2985 14.8965C18.3 14.9276 18.2919 14.9585 18.275 14.9853C18.2582 15.0122 18.2334 15.0338 18.2037 15.0476C18.1282 15.0869 18.0421 15.1047 17.9561 15.0989H17.1702C17.0769 15.1044 16.9839 15.0851 16.9018 15.0432C16.8718 15.0293 16.8468 15.0073 16.8301 14.98C16.8133 14.9528 16.8055 14.9215 16.8075 14.8901V13.9138C16.8047 13.8798 16.8127 13.8459 16.8305 13.8162C16.8484 13.7866 16.8752 13.7627 16.9077 13.7475C16.9697 13.7085 17.0728 13.6887 17.2138 13.6887H17.9161C18.0492 13.6887 18.1469 13.7087 18.2092 13.7498C18.2392 13.7663 18.2636 13.7905 18.2794 13.8195C18.2953 13.8486 18.3019 13.8813 18.2987 13.9138L18.2985 14.8965Z" fill="#001A3A"/>
<path d="M22.4389 14.8705V13.9073C22.4389 13.8211 22.459 13.7646 22.4992 13.7393C22.5289 13.7203 22.6087 13.6885 22.8081 13.6885H23.722L24.1789 13.0852H22.5629C21.8098 13.0852 21.6516 13.4709 21.6516 13.7945V14.967C21.6516 15.4546 22.0092 15.7021 22.7141 15.7021H23.7351L24.1921 15.0987H22.8383C22.4389 15.0987 22.4389 14.9386 22.4389 14.8701" fill="#001A3A"/>
<path d="M28.2521 14.3739L29.7427 13.0981H28.7402L27.5341 14.1075V12.2832H26.7468V15.7023H27.5341V14.6272L28.7971 15.7023H29.8223L28.2521 14.3739Z" fill="#001A3A"/>
<path d="M1.98208 13.2324H0.00300279L0.45999 13.836H1.94224C2.22248 13.836 2.24531 13.9297 2.25247 13.9612C2.25319 13.9652 2.25362 13.9693 2.25377 13.9733V14.2012H0.943719C0.653527 14.2012 0.419023 14.2602 0.247186 14.3763C0.0647238 14.4993 -0.0278802 14.6771 -0.0278802 14.9039V15.1693C-0.0305595 15.274 -0.00340041 15.3775 0.0507823 15.469C0.104965 15.5606 0.1842 15.6368 0.280275 15.6899C0.456659 15.7957 0.691208 15.8493 0.977348 15.8493H2.10665C2.38527 15.8493 2.61086 15.7861 2.77698 15.6619C2.8603 15.6019 2.92737 15.5242 2.97274 15.4352C3.01811 15.3462 3.0405 15.2484 3.03809 15.1497V13.9418C3.03809 13.4711 2.68289 13.2324 1.98222 13.2324M2.2508 15.0695C2.2508 15.1205 2.2508 15.2396 1.93544 15.2396H1.08819C0.999932 15.2424 0.912485 15.2229 0.834998 15.1831C0.811271 15.1722 0.791472 15.155 0.778053 15.1336C0.764634 15.1122 0.758184 15.0875 0.759502 15.0627V14.9876C0.759502 14.9198 0.759502 14.7789 1.08152 14.7789H2.21073C2.2241 14.7786 2.23747 14.7795 2.25066 14.7815L2.2508 15.0695Z" fill="#001A3A"/>
<path d="M12.5198 12.4297H11.7326V13.2738H11.1955V13.8674H11.7326V15.8486H12.5198V13.8674H12.8512L13.3095 13.2739H12.5198V12.4297Z" fill="#001A3A"/>
<path d="M16.3567 7.12986V9.66489H18.8809V6.95898L17.635 7.75314L16.3567 7.12986Z" fill="#001A3A"/>
<path d="M18.6652 3.92387H16.5723C16.4533 3.92387 16.3567 4.007 16.3567 4.15405V6.61102L17.6026 7.21856L18.8809 6.40391V4.15401C18.8809 4.00696 18.7844 3.92387 18.6652 3.92387Z" fill="#001A3A"/>
<path d="M12.6627 4.23242H10.5358C10.4261 4.23242 10.3372 4.30616 10.3372 4.44156V7.16326L12.8614 6.34286V4.44156C12.8614 4.30612 12.7725 4.23242 12.6627 4.23242Z" fill="#001A3A"/>
<path d="M10.3372 9.66436H12.8614V6.83008L10.3372 7.65056V9.66436Z" fill="#001A3A"/>
<path d="M15.6547 2.59692H13.5617C13.4427 2.59692 13.3462 2.68006 13.3462 2.82698V6.18478L14.6271 5.76844L15.8704 6.37457V2.82698C15.8704 2.68006 15.7738 2.59692 15.6547 2.59692" fill="#001A3A"/>
<path d="M13.346 6.67177V9.66377H15.8702V6.89221L14.5895 6.26758L13.346 6.67177Z" fill="#001A3A"/>
<path d="M7.32834 9.66472H9.8526V7.80859L7.32834 8.62908V9.66472Z" fill="#001A3A"/>
<path d="M9.63691 6.44727H7.54403C7.42491 6.44727 7.32838 6.5304 7.32838 6.67745V8.14013L9.85264 7.31973V6.67745C9.85264 6.5304 9.75603 6.44727 9.63691 6.44727Z" fill="#001A3A"/>
<path d="M5.68066 9.16453L5.52597 9.21494L5.68066 9.65269L7.32835 9.11708V8.62891L7.19928 8.67085L5.68066 9.16453Z" fill="#001A3A"/>
<path d="M21.8897 0.3412C21.8897 0.199612 21.7968 0.121094 21.682 0.121094H19.5732C19.4585 0.121094 19.3656 0.199739 19.3656 0.3412V6.09443L21.8897 4.48554V0.3412Z" fill="#001A3A"/>
<path d="M23.6323 3.73282L23.2231 3.69727L23.2966 3.80326L23.4131 3.97121L23.4019 3.95509L23.4304 3.99606L23.4385 4.00778L23.4602 4.03928L22.0418 4.94361L21.8897 5.04055L19.3655 6.64944V9.66455H21.8897V5.59542L23.7271 4.42429L23.7395 4.44237L23.7535 4.46243L23.951 4.74738L24.2687 3.78802L23.6323 3.73282Z" fill="#001A3A"/>
</g>
</g>
<defs>
<clipPath id="clip0_454_16005">
<rect width="30" height="16" fill="white"/>
</clipPath>
</defs>
</svg>
